<svg width="800" height="520" viewBox="0 0 800 520" fill="none" xmlns="http://www.w3.org/2000/svg">
  <defs>
    <linearGradient id="bg" x1="0" y1="0" x2="800" y2="520" gradientUnits="userSpaceOnUse">
      <stop stop-color="#050B1B"/>
      <stop offset="1" stop-color="#111A3A"/>
    </linearGradient>
    <linearGradient id="neon" x1="120" y1="120" x2="650" y2="420" gradientUnits="userSpaceOnUse">
      <stop stop-color="#00D0FF"/>
      <stop offset="1" stop-color="#7C4DFF"/>
    </linearGradient>
  </defs>
  <rect width="800" height="520" rx="24" fill="url(#bg)"/>
  <rect x="72" y="78" width="656" height="364" rx="18" fill="#0C1430" stroke="#2D5BFF" stroke-opacity="0.5"/>
  <rect x="92" y="110" width="220" height="14" rx="7" fill="#1D2B58"/>
  <rect x="92" y="148" width="430" height="12" rx="6" fill="#19396C"/>
  <rect x="92" y="176" width="380" height="12" rx="6" fill="#19396C"/>
  <rect x="92" y="204" width="470" height="12" rx="6" fill="#19396C"/>
  <rect x="92" y="250" width="280" height="10" rx="5" fill="#7C4DFF" fill-opacity="0.7"/>
  <rect x="92" y="274" width="320" height="10" rx="5" fill="#00D0FF" fill-opacity="0.8"/>
  <rect x="92" y="298" width="260" height="10" rx="5" fill="#7C4DFF" fill-opacity="0.7"/>
  <circle cx="620" cy="258" r="78" fill="url(#neon)" fill-opacity="0.18"/>
  <path d="M596 258L624 230L652 258L624 286L596 258Z" stroke="#00D0FF" stroke-width="5"/>
  <path d="M610 217L638 299" stroke="#7C4DFF" stroke-width="4" stroke-linecap="round"/>
  <circle cx="115" cy="94" r="5" fill="#FF4D8D"/>
  <circle cx="132" cy="94" r="5" fill="#FFC84D"/>
  <circle cx="149" cy="94" r="5" fill="#53F5A4"/>
</svg>
